<svg width="20" height="20" viewBox="0 0 20 20" fill="none" xmlns="http://www.w3.org/2000/svg">
<g clip-path="url(#clip0_90_4)">
<path d="M0 8.4375C0 7.23 0.98 6.25 2.1875 6.25H4.0625C4.31114 6.25 4.5496 6.34877 4.72541 6.52459C4.90123 6.7004 5 6.93886 5 7.1875C5 7.43614 4.90123 7.6746 4.72541 7.85041C4.5496 8.02623 4.31114 8.125 4.0625 8.125H2.1875C2.10462 8.125 2.02513 8.15792 1.96653 8.21653C1.90792 8.27513 1.875 8.35462 1.875 8.4375V17.8125C1.875 17.985 2.015 18.125 2.1875 18.125H11.5625C11.6454 18.125 11.7249 18.0921 11.7835 18.0335C11.8421 17.9749 11.875 17.8954 11.875 17.8125V15.9375C11.875 15.6889 11.9738 15.4504 12.1496 15.2746C12.3254 15.0988 12.5639 15 12.8125 15C13.0611 15 13.2996 15.0988 13.4754 15.2746C13.6512 15.4504 13.75 15.6889 13.75 15.9375V17.8125C13.75 18.3927 13.5195 18.9491 13.1093 19.3593C12.6991 19.7695 12.1427 20 11.5625 20H2.1875C1.60734 20 1.05094 19.7695 0.640704 19.3593C0.230468 18.9491 0 18.3927 0 17.8125L0 8.4375Z" fill="#171717"/>
<path d="M6.25 2.1875C6.25 0.98 7.23 0 8.4375 0H17.8125C19.02 0 20 0.98 20 2.1875V11.5625C20 12.1427 19.7695 12.6991 19.3593 13.1093C18.9491 13.5195 18.3927 13.75 17.8125 13.75H8.4375C7.85734 13.75 7.30094 13.5195 6.8907 13.1093C6.48047 12.6991 6.25 12.1427 6.25 11.5625V2.1875ZM8.4375 1.875C8.35462 1.875 8.27513 1.90792 8.21653 1.96653C8.15792 2.02513 8.125 2.10462 8.125 2.1875V11.5625C8.125 11.735 8.265 11.875 8.4375 11.875H17.8125C17.8954 11.875 17.9749 11.8421 18.0335 11.7835C18.0921 11.7249 18.125 11.6454 18.125 11.5625V2.1875C18.125 2.10462 18.0921 2.02513 18.0335 1.96653C17.9749 1.90792 17.8954 1.875 17.8125 1.875H8.4375Z" fill="#171717"/>
</g>
<defs>
<clipPath id="clip0_90_4">
<rect width="20" height="20" fill="white"/>
</clipPath>
</defs>
</svg>
