<svg width="20" height="20" viewBox="0 0 20 20" fill="none" xmlns="http://www.w3.org/2000/svg">
<path d="M4.6875 8.12495C4.60462 8.12495 4.52513 8.15788 4.46653 8.21648C4.40792 8.27509 4.375 8.35457 4.375 8.43745V16.5625C4.375 16.735 4.515 16.875 4.6875 16.875H15.3125C15.3954 16.875 15.4749 16.842 15.5335 16.7834C15.5921 16.7248 15.625 16.6453 15.625 16.5625V8.43745C15.625 8.35457 15.5921 8.27509 15.5335 8.21648C15.4749 8.15788 15.3954 8.12495 15.3125 8.12495H14.0625C13.8139 8.12495 13.5754 8.02618 13.3996 7.85037C13.2238 7.67455 13.125 7.43609 13.125 7.18745C13.125 6.93881 13.2238 6.70036 13.3996 6.52454C13.5754 6.34872 13.8139 6.24995 14.0625 6.24995H15.3125C16.52 6.24995 17.5 7.22995 17.5 8.43745V16.5625C17.5 17.1426 17.2695 17.699 16.8593 18.1093C16.4491 18.5195 15.8927 18.75 15.3125 18.75H4.6875C4.10734 18.75 3.55094 18.5195 3.1407 18.1093C2.73047 17.699 2.5 17.1426 2.5 16.5625V8.43745C2.5 7.22995 3.48 6.24995 4.6875 6.24995H5.9375C6.18614 6.24995 6.4246 6.34872 6.60041 6.52454C6.77623 6.70036 6.875 6.93881 6.875 7.18745C6.875 7.43609 6.77623 7.67455 6.60041 7.85037C6.4246 8.02618 6.18614 8.12495 5.9375 8.12495H4.6875ZM9.77875 0.221203C9.80778 0.192101 9.84226 0.169012 9.88023 0.153258C9.91819 0.137504 9.9589 0.129395 10 0.129395C10.0411 0.129395 10.0818 0.137504 10.1198 0.153258C10.1577 0.169012 10.1922 0.192101 10.2213 0.221203L13.8412 3.8412C13.8851 3.88491 13.9149 3.94064 13.927 4.00133C13.9391 4.06203 13.9329 4.12495 13.9092 4.18212C13.8855 4.23929 13.8454 4.28814 13.7939 4.32247C13.7424 4.3568 13.6819 4.37506 13.62 4.37495H10.9375V11.5625C10.9375 11.8111 10.8387 12.0496 10.6629 12.2254C10.4871 12.4012 10.2486 12.5 10 12.5C9.75136 12.5 9.5129 12.4012 9.33709 12.2254C9.16127 12.0496 9.0625 11.8111 9.0625 11.5625V4.37495H6.38C6.31811 4.37506 6.25758 4.3568 6.20609 4.32247C6.1546 4.28814 6.11446 4.23929 6.09076 4.18212C6.06706 4.12495 6.06087 4.06203 6.07298 4.00133C6.08508 3.94064 6.11493 3.88491 6.15875 3.8412L9.77875 0.221203Z" fill="#171717"/>
</svg>
