<svg width="20" height="20" viewBox="0 0 20 20" fill="none" xmlns="http://www.w3.org/2000/svg">
<path d="M3.12625 10C3.12625 8.64026 3.52946 7.31105 4.2849 6.18046C5.04033 5.04987 6.11406 4.16868 7.3703 3.64833C8.62654 3.12798 10.0089 2.99183 11.3425 3.25711C12.6761 3.52238 13.9011 4.17716 14.8626 5.13864C15.8241 6.10013 16.4789 7.32514 16.7441 8.65876C17.0094 9.99238 16.8733 11.3747 16.3529 12.631C15.8326 13.8872 14.9514 14.9609 13.8208 15.7164C12.6902 16.4718 11.361 16.875 10.0013 16.875C9.75261 16.8748 9.51409 16.9735 9.33815 17.1491C9.16222 17.3248 9.06329 17.5632 9.06313 17.8119C9.06296 18.0605 9.16157 18.299 9.33727 18.475C9.51297 18.6509 9.75136 18.7498 10 18.75C11.7306 18.75 13.4223 18.2368 14.8612 17.2754C16.3002 16.3139 17.4217 14.9473 18.0839 13.3485C18.7462 11.7496 18.9195 9.9903 18.5819 8.29296C18.2443 6.59563 17.4109 5.03653 16.1872 3.81282C14.9635 2.58911 13.4044 1.75575 11.707 1.41813C10.0097 1.08051 8.25037 1.25379 6.65152 1.91606C5.05267 2.57832 3.6861 3.69983 2.72464 5.13876C1.76318 6.57769 1.25 8.26942 1.25 10C1.25 10.2488 1.34884 10.4874 1.52477 10.6634C1.7007 10.8393 1.93932 10.9381 2.18812 10.9381C2.43693 10.9381 2.67555 10.8393 2.85148 10.6634C3.02741 10.4874 3.12625 10.2488 3.12625 10Z" fill="#171717"/>
</svg>
