<svg width="200" height="200" viewBox="0 0 200 200" fill="none" xmlns="http://www.w3.org/2000/svg">
<g clip-path="url(#clip0_83_2)">
<rect x="7" y="7" width="187" height="187" fill="#F9FAFB"/>
<path fill-rule="evenodd" clip-rule="evenodd" d="M200 0H0V200H200V0ZM100 185C146.944 185 185 146.944 185 100C185 53.0558 146.944 15 100 15C53.0558 15 15 53.0558 15 100C15 146.944 53.0558 185 100 185Z" fill="#171717"/>
<path fill-rule="evenodd" clip-rule="evenodd" d="M158.177 140.473C166.086 129.094 170.722 115.269 170.722 100.361C170.722 61.5017 139.22 30 100.361 30C61.5017 30 30 61.5017 30 100.361C30 139.22 61.5017 170.722 100.361 170.722C117.1 170.722 132.474 164.877 144.553 155.116L93.4807 106.692C89.4729 102.892 89.3045 96.5628 93.1044 92.555C96.9044 88.5473 103.234 88.3788 107.242 92.1788L158.177 140.473Z" fill="#171717"/>
</g>
<defs>
<clipPath id="clip0_83_2">
<rect width="200" height="200" fill="white"/>
</clipPath>
</defs>
</svg>
