<svg width="20" height="20" viewBox="0 0 20 20" fill="none" xmlns="http://www.w3.org/2000/svg">
<g clip-path="url(#clip0_81_2)">
<path fill-rule="evenodd" clip-rule="evenodd" d="M0.714233 10C0.714233 7.53728 1.69255 5.17543 3.43396 3.43402C5.17537 1.69261 7.53722 0.714294 9.99995 0.714294C12.4627 0.714294 14.8245 1.69261 16.5659 3.43402C18.3073 5.17543 19.2857 7.53728 19.2857 10C19.2857 12.4627 18.3073 14.8246 16.5659 16.566C14.8245 18.3074 12.4627 19.2857 9.99995 19.2857C7.53722 19.2857 5.17537 18.3074 3.43396 16.566C1.69255 14.8246 0.714233 12.4627 0.714233 10ZM7.36995 13.7057C8.74625 13.3845 10.1906 13.5365 11.4699 14.1372C11.5759 14.1873 11.6908 14.2162 11.8079 14.222C11.925 14.2278 12.0422 14.2104 12.1526 14.171C12.263 14.1315 12.3646 14.0707 12.4516 13.9919C12.5385 13.9132 12.609 13.8181 12.6592 13.7122C12.7094 13.6062 12.7382 13.4913 12.744 13.3742C12.7498 13.2571 12.7325 13.1399 12.693 13.0295C12.6536 12.9191 12.5927 12.8175 12.514 12.7305C12.4353 12.6436 12.3402 12.573 12.2342 12.5229C10.5902 11.7479 8.73249 11.5516 6.96281 11.9657C6.84856 11.9925 6.74069 12.0414 6.64537 12.1099C6.55004 12.1783 6.46913 12.2648 6.40725 12.3645C6.34536 12.4642 6.30372 12.5751 6.2847 12.6909C6.26567 12.8066 6.26964 12.925 6.29638 13.0393C6.32311 13.1535 6.37208 13.2614 6.4405 13.3567C6.50892 13.4521 6.59545 13.533 6.69514 13.5949C6.79483 13.6567 6.90573 13.6984 7.02152 13.7174C7.1373 13.7364 7.2557 13.7325 7.36995 13.7057ZM8.79995 10.6843C8.07519 10.6862 7.37614 10.7672 6.7028 10.9272C6.58865 10.9541 6.47031 10.9582 6.35454 10.9394C6.23877 10.9206 6.12784 10.8792 6.02808 10.8175C5.92833 10.7558 5.8417 10.6751 5.77314 10.5799C5.70458 10.4848 5.65544 10.377 5.62852 10.2629C5.6016 10.1487 5.59743 10.0304 5.61624 9.9146C5.63505 9.79883 5.67649 9.6879 5.73817 9.58814C5.79985 9.48839 5.88058 9.40176 5.97575 9.3332C6.07091 9.26464 6.17865 9.2155 6.29281 9.18858C8.79568 8.59857 11.4265 8.91123 13.7214 10.0714C13.9312 10.1793 14.0899 10.3658 14.1626 10.5902C14.2354 10.8146 14.2164 11.0587 14.1097 11.2692C14.0031 11.4796 13.8175 11.6393 13.5935 11.7133C13.3695 11.7874 13.1253 11.7697 12.9142 11.6643C11.6392 11.018 10.2294 10.6822 8.79995 10.6843ZM6.02852 8.15001C6.93663 7.93499 7.86673 7.82664 8.79995 7.82715C10.8228 7.82715 12.7257 8.32715 14.3942 9.21287C14.6036 9.32369 14.8483 9.34682 15.0747 9.27716C15.3011 9.2075 15.4906 9.05077 15.6014 8.84144C15.7122 8.63211 15.7353 8.38732 15.6657 8.16094C15.596 7.93456 15.4393 7.74512 15.2299 7.63429C13.2494 6.58613 11.0422 6.03923 8.80138 6.04144C7.72867 6.04152 6.65961 6.16617 5.61566 6.41287C5.50016 6.43857 5.39091 6.48698 5.29428 6.55527C5.19764 6.62357 5.11555 6.71039 5.05277 6.8107C4.98999 6.911 4.94777 7.02279 4.92857 7.13955C4.90938 7.25631 4.91358 7.37573 4.94094 7.49086C4.9683 7.60598 5.01827 7.71452 5.08795 7.81016C5.15763 7.9058 5.24563 7.98664 5.34682 8.04797C5.44802 8.1093 5.5604 8.14991 5.67743 8.16743C5.79446 8.18494 5.9138 8.17902 6.02852 8.15001Z" fill="#F9FAFB"/>
</g>
<defs>
<clipPath id="clip0_81_2">
<rect width="20" height="20" fill="white"/>
</clipPath>
</defs>
</svg>
