<svg width="21" height="20" viewBox="0 0 21 20" fill="none" xmlns="http://www.w3.org/2000/svg">
<path fill-rule="evenodd" clip-rule="evenodd" d="M1.21423 10C1.21423 7.53728 2.19255 5.17543 3.93396 3.43402C5.67537 1.69261 8.03722 0.714294 10.4999 0.714294C12.9627 0.714294 15.3245 1.69261 17.0659 3.43402C18.8074 5.17543 19.7857 7.53728 19.7857 10C19.7857 12.4627 18.8074 14.8246 17.0659 16.566C15.3245 18.3074 12.9627 19.2857 10.4999 19.2857C8.03722 19.2857 5.67537 18.3074 3.93396 16.566C2.19255 14.8246 1.21423 12.4627 1.21423 10ZM7.86995 13.7057C9.24625 13.3845 10.6906 13.5365 11.9699 14.1372C12.0759 14.1873 12.1908 14.2162 12.3079 14.222C12.425 14.2278 12.5422 14.2104 12.6526 14.171C12.763 14.1315 12.8646 14.0707 12.9516 13.9919C13.0385 13.9132 13.109 13.8181 13.1592 13.7122C13.2094 13.6062 13.2382 13.4913 13.244 13.3742C13.2498 13.2571 13.2325 13.1399 13.193 13.0295C13.1536 12.9191 13.0927 12.8175 13.014 12.7305C12.9353 12.6436 12.8402 12.573 12.7342 12.5229C11.0902 11.7479 9.23249 11.5516 7.46281 11.9657C7.34856 11.9925 7.24069 12.0414 7.14537 12.1099C7.05004 12.1783 6.96913 12.2648 6.90725 12.3645C6.84536 12.4642 6.80372 12.5751 6.7847 12.6909C6.76567 12.8066 6.76964 12.925 6.79638 13.0393C6.82311 13.1535 6.87209 13.2614 6.94051 13.3567C7.00892 13.4521 7.09545 13.533 7.19514 13.5949C7.29483 13.6567 7.40573 13.6984 7.52152 13.7174C7.6373 13.7364 7.7557 13.7325 7.86995 13.7057ZM9.29995 10.6843C8.57519 10.6862 7.87614 10.7672 7.20281 10.9272C7.08865 10.9541 6.97031 10.9582 6.85454 10.9394C6.73877 10.9206 6.62784 10.8792 6.52808 10.8175C6.42833 10.7558 6.3417 10.6751 6.27314 10.5799C6.20458 10.4848 6.15544 10.377 6.12852 10.2629C6.1016 10.1487 6.09743 10.0304 6.11624 9.9146C6.13505 9.79883 6.17649 9.6879 6.23817 9.58815C6.29985 9.48839 6.38058 9.40176 6.47575 9.3332C6.57091 9.26464 6.67865 9.2155 6.79281 9.18858C9.29568 8.59857 11.9265 8.91123 14.2214 10.0714C14.4312 10.1793 14.5899 10.3658 14.6626 10.5902C14.7354 10.8146 14.7164 11.0587 14.6097 11.2692C14.5031 11.4796 14.3175 11.6393 14.0935 11.7133C13.8695 11.7874 13.6253 11.7697 13.4142 11.6643C12.1392 11.018 10.7294 10.6822 9.29995 10.6843ZM6.52852 8.15001C7.43663 7.93499 8.36673 7.82664 9.29995 7.82715C11.3228 7.82715 13.2257 8.32715 14.8942 9.21287C15.1036 9.32369 15.3483 9.34682 15.5747 9.27716C15.8011 9.2075 15.9906 9.05077 16.1014 8.84144C16.2122 8.63211 16.2353 8.38732 16.1657 8.16094C16.096 7.93456 15.9393 7.74512 15.7299 7.63429C13.7494 6.58613 11.5422 6.03923 9.30138 6.04144C8.22867 6.04152 7.15961 6.16617 6.11566 6.41287C6.00016 6.43857 5.89091 6.48698 5.79428 6.55527C5.69764 6.62357 5.61555 6.71039 5.55277 6.8107C5.48999 6.911 5.44777 7.02279 5.42857 7.13955C5.40938 7.25631 5.41358 7.37573 5.44094 7.49086C5.4683 7.60598 5.51827 7.71452 5.58795 7.81016C5.65763 7.9058 5.74563 7.98664 5.84682 8.04797C5.94802 8.1093 6.0604 8.14991 6.17743 8.16743C6.29446 8.18494 6.4138 8.17902 6.52852 8.15001Z" fill="#171717"/>
</svg>
